<svg xmlns="http://www.w3.org/2000/svg" viewBox="0 0 60 60">
  <path d="M44.51 31.13c-.06-5.44 4.44-8.06 4.64-8.19-2.54-3.71-6.5-4.22-7.89-4.27-3.36-.34-6.56 1.97-8.27 1.97-1.7 0-4.33-1.92-7.13-1.87-3.66.05-7.06 2.13-8.95 5.41-3.82 6.62-.98 16.41 2.74 21.78 1.82 2.65 3.99 5.63 6.84 5.52 2.75-.11 3.78-1.78 7.09-1.78 3.31 0 4.23 1.78 7.13 1.73 2.96-.05 4.82-2.69 6.6-5.36 2.09-3.01 2.95-5.93 2.99-6.08-.07-.03-5.74-2.2-5.8-8.74zm-6.81-16.04c1.44-1.75 2.41-4.19 2.14-6.61-2.07.08-4.57 1.38-6.06 3.13-1.33 1.54-2.5 4-2.06 6.36 2.23.17 4.54-1.13 5.98-2.88z" fill="#111"/>
</svg>
