<svg xmlns="http://www.w3.org/2000/svg" viewBox="0 0 48 48">
  <circle cx="24" cy="24" r="24" fill="#1ED760"/>
  <path d="M35.2 33.1c-.4 0-.7-.1-1-.3-6.1-3.7-13.8-4.5-22.8-2.3-.9.2-1.8-.3-2-.9-.2-.7.3-1.5 1.2-1.7 9.7-2.3 18.1-1.4 24.7 2.6.7.4.9 1.2.6 1.8-.2.4-.7.8-1.3.8zm2.7-5.6c-.5 0-.9-.2-1.2-.4-7-4.3-17.7-5.6-25.9-2.8-.8.3-1.7-.1-2-.8-.3-.8.1-1.6.9-1.9 9-3.1 20.7-1.7 28.6 3.1.7.4.9 1.3.5 2-.2.4-.7.8-1.2.8zm2.8-5.8c-.5 0-1-.2-1.3-.5-7.9-4.7-21.1-5.1-28.6-2.6-.9.3-1.8-.2-2.1-1-.3-.9.2-1.8 1.1-2.1 8.2-2.7 22.4-2.3 31.2 2.9.8.5 1.1 1.4.6 2.2-.3.5-.8.9-1.5.9z" fill="#fff"/>
</svg>